<svg width="115" height="109" fill="none" xmlns="http://www.w3.org/2000/svg"><path d="M59.176 99.557h-.58c-7.283-.099-14.567-1.834-21.07-5.056a3.065 3.065 0 0 1-1.385-4.163c.78-1.537 2.671-2.132 4.234-1.363a42.64 42.64 0 0 0 18.297 4.411A41.757 41.757 0 0 0 77.65 89.1c20.54-10.04 28.957-34.65 18.75-54.848-10.207-20.2-35.233-28.477-55.773-18.44C20.087 25.85 11.669 50.435 21.876 70.66c.781 1.537.151 3.396-1.412 4.164a3.198 3.198 0 0 1-4.234-1.388c-5.695-11.277-6.577-24.04-2.495-35.962 4.083-11.92 12.627-21.611 24.094-27.212C61.495-1.29 90.301 8.228 102.046 31.5c5.696 11.276 6.578 24.04 2.495 35.961S91.914 89.05 80.447 94.65c-6.704 3.247-13.862 4.907-21.271 4.907z" fill="#fff"/><path d="M59.075 79.78c-5.494 0-10.862-1.611-15.525-4.71-6.15-4.089-10.308-10.285-11.72-17.447-.83-4.288-.125-8.352.48-11.054.378-1.66 2.066-2.726 3.755-2.355 1.689.372 2.772 2.033 2.394 3.693-.781 3.47-.907 6.097-.428 8.526 1.084 5.552 4.31 10.335 9.048 13.507 4.738 3.173 10.484 4.313 16.104 3.247 5.646-1.066 10.51-4.238 13.736-8.922 3.225-4.684 4.385-10.31 3.301-15.837-1.084-5.552-4.31-10.335-9.073-13.508-4.763-3.172-10.484-4.312-16.104-3.246-2.193.421-4.335 1.313-6.956 2.875a3.187 3.187 0 0 1-4.335-1.041c-.908-1.462-.429-3.37 1.058-4.263 2.042-1.214 5.217-2.925 9.048-3.668 7.284-1.388 14.693.1 20.843 4.188 6.15 4.09 10.308 10.286 11.719 17.448 1.411 7.163-.1 14.45-4.284 20.497-4.184 6.047-10.46 10.136-17.743 11.524-1.764.397-3.554.546-5.318.546z" fill="#fff"/><path d="M59.126 67.14c8.253 0 14.945-6.58 14.945-14.697 0-8.117-6.692-14.697-14.945-14.697-8.255 0-14.946 6.58-14.946 14.697 0 8.117 6.691 14.697 14.946 14.697z" fill="#E3BA6B"/><path d="M59.403 89.693a38.207 38.207 0 0 1-14.996-3.073c-6.225-2.652-11.72-7.138-16.356-13.359a33.459 33.459 0 0 1-4.235-7.46c-.68-1.66.152-3.519 1.815-4.188a3.298 3.298 0 0 1 4.26 1.785c.856 2.081 2.016 4.114 3.427 6.022 4.007 5.378 8.468 9.046 13.685 11.277 15.827 6.741 34.3-.446 41.181-15.986 6.855-15.564-.453-33.731-16.28-40.497-7.662-3.271-16.18-3.42-23.943-.397-7.788 3.024-13.887 8.848-17.239 16.383a3.283 3.283 0 0 1-4.31 1.66c-1.663-.719-2.42-2.602-1.688-4.238 4.032-9.12 11.417-16.16 20.842-19.802 9.401-3.668 19.709-3.495 28.958.47 19.13 8.18 27.95 30.138 19.658 48.974-6.149 14.028-20.136 22.43-34.78 22.43z" fill="#fff"/></svg>