<svg width="40" height="38" fill="none" xmlns="http://www.w3.org/2000/svg"><path d="M20.583 34.708h-.202a17.087 17.087 0 0 1-7.328-1.763 1.07 1.07 0 0 1-.482-1.451 1.1 1.1 0 0 1 1.472-.475 14.803 14.803 0 0 0 6.365 1.538 14.495 14.495 0 0 0 6.6-1.495c7.145-3.5 10.073-12.08 6.523-19.121-3.55-7.042-12.255-9.928-19.4-6.429C6.987 9.012 4.06 17.583 7.61 24.634a1.073 1.073 0 0 1-.49 1.451 1.111 1.111 0 0 1-1.474-.484 16.083 16.083 0 0 1-.867-12.537c1.42-4.156 4.391-7.534 8.38-9.487 8.231-4.026 18.251-.708 22.336 7.405a16.083 16.083 0 0 1 .868 12.537c-1.42 4.156-4.392 7.526-8.38 9.478a16.816 16.816 0 0 1-7.399 1.711z" fill="#fff"/><path d="M20.548 27.813a9.71 9.71 0 0 1-5.4-1.642 9.461 9.461 0 0 1-4.076-6.082c-.29-1.495-.044-2.912.166-3.854a1.1 1.1 0 0 1 1.306-.82c.588.129.965.708.833 1.287-.272 1.21-.316 2.125-.149 2.972.377 1.935 1.5 3.603 3.147 4.709a7.497 7.497 0 0 0 5.602 1.132 7.429 7.429 0 0 0 4.777-3.11 7.227 7.227 0 0 0 1.149-5.522c-.377-1.935-1.5-3.603-3.156-4.709a7.505 7.505 0 0 0-5.602-1.132c-.762.147-1.508.458-2.42 1.003a1.107 1.107 0 0 1-1.507-.363 1.073 1.073 0 0 1 .368-1.487c.71-.423 1.815-1.019 3.147-1.278a9.715 9.715 0 0 1 7.25 1.46 9.461 9.461 0 0 1 4.076 6.083 9.321 9.321 0 0 1-1.49 7.145 9.637 9.637 0 0 1-6.171 4.018 8.402 8.402 0 0 1-1.85.19z" fill="#fff"/><path d="M20.565 23.407c2.871 0 5.199-2.294 5.199-5.124 0-2.83-2.328-5.124-5.199-5.124-2.87 0-5.198 2.294-5.198 5.124 0 2.83 2.327 5.124 5.198 5.124z" fill="#E3BA6B"/><path d="M20.662 31.27a13.26 13.26 0 0 1-5.216-1.072c-2.165-.925-4.076-2.489-5.69-4.657a11.67 11.67 0 0 1-1.472-2.601 1.119 1.119 0 0 1 .631-1.46 1.146 1.146 0 0 1 1.482.622 9.869 9.869 0 0 0 1.192 2.1c1.394 1.874 2.945 3.153 4.76 3.93 5.505 2.351 11.93-.155 14.324-5.572 2.384-5.426-.158-11.76-5.663-14.118a10.947 10.947 0 0 0-8.328-.139 10.79 10.79 0 0 0-5.996 5.712c-.254.57-.92.829-1.5.579a1.112 1.112 0 0 1-.586-1.478c1.402-3.18 3.97-5.633 7.25-6.904a13.208 13.208 0 0 1 10.072.165c6.653 2.85 9.721 10.506 6.837 17.073-2.139 4.89-7.004 7.82-12.097 7.82z" fill="#fff"/></svg>