<svg width="115" height="109" viewBox="0 0 115 109" fill="none" xmlns="http://www.w3.org/2000/svg">
<path d="M59.1759 99.5574C58.9742 99.5574 58.7726 99.5574 58.5962 99.5574C51.3126 99.4583 44.029 97.7234 37.5267 94.5015C35.9642 93.7332 35.3593 91.8744 36.1406 90.3378C36.9219 88.8011 38.8121 88.2063 40.3746 88.9746C46.0201 91.7752 52.3711 93.3118 58.6718 93.3862C65.2749 93.4605 71.6764 92.0231 77.6495 89.0986C98.1897 79.061 106.607 54.4505 96.4003 34.2516C86.1932 14.0526 61.1669 5.77477 40.6267 15.8123C20.0865 25.8498 11.6688 50.4355 21.8759 70.6593C22.6571 72.1959 22.0271 74.0547 20.4645 74.823C18.9019 75.5913 17.0117 74.9469 16.2304 73.4351C10.5346 62.1584 9.65253 49.3946 13.7354 37.4735C17.8182 25.5524 26.3619 15.8619 37.8292 10.2607C61.4945 -1.28867 90.3012 8.22838 102.046 31.5006C107.742 42.7773 108.624 55.541 104.541 67.4621C100.458 79.3832 91.9142 89.049 80.447 94.6502C73.743 97.8969 66.5855 99.5574 59.1759 99.5574Z" fill="white"/>
<path d="M59.0751 79.7796C53.5809 79.7796 48.2127 78.1686 43.5502 75.0706C37.4007 70.9813 33.2423 64.7853 31.8309 57.6227C30.9992 53.3351 31.7049 49.2705 32.3098 46.569C32.6878 44.9085 34.3764 43.8428 36.065 44.2145C37.7536 44.5863 38.8373 46.2468 38.4592 47.9074C37.678 51.3771 37.5519 54.0042 38.0308 56.433C39.1145 61.9847 42.3405 66.768 47.0786 69.9403C51.8167 73.1127 57.5629 74.2527 63.1831 73.187C68.8285 72.1213 73.6926 68.949 76.9186 64.2648C80.1445 59.5806 81.3039 53.9546 80.2201 48.4278C79.1364 42.8762 75.9105 38.0929 71.1472 34.9205C66.3839 31.7482 60.6628 30.6081 55.0426 31.6738C52.85 32.0952 50.7078 32.9874 48.0867 34.5488C46.5997 35.441 44.6591 34.9701 43.7518 33.5079C42.8445 32.0456 43.3234 30.1372 44.8103 29.245C46.8518 28.0306 50.0273 26.3205 53.8581 25.577C61.1417 24.1891 68.5513 25.6761 74.7008 29.7655C80.8502 33.8548 85.0087 40.0508 86.42 47.2134C87.8314 54.376 86.3192 61.6625 82.1356 67.7098C77.9519 73.7571 71.6764 77.8464 64.3928 79.2343C62.6287 79.6309 60.8393 79.7796 59.0751 79.7796Z" fill="white"/>
<path d="M59.1255 67.1399C67.3795 67.1399 74.0707 60.5599 74.0707 52.443C74.0707 44.3261 67.3795 37.7461 59.1255 37.7461C50.8715 37.7461 44.1803 44.3261 44.1803 52.443C44.1803 60.5599 50.8715 67.1399 59.1255 67.1399Z" fill="#E3BA6B"/>
<path d="M59.4027 89.6933C54.3873 89.6933 49.2964 88.7019 44.4071 86.6201C38.182 83.9682 32.6878 79.4823 28.0505 73.2615C26.2863 70.907 24.875 68.4038 23.8164 65.8015C23.136 64.141 23.9677 62.2822 25.631 61.613C27.3196 60.9439 29.2098 61.7617 29.8903 63.3975C30.7472 65.4793 31.9065 67.5116 33.3179 69.42C37.3251 74.7981 41.786 78.4661 47.0029 80.6967C62.8302 87.438 81.3038 80.2506 88.1842 64.711C95.0393 49.1467 87.7305 30.98 71.9032 24.214C64.2416 20.9425 55.7231 20.7938 47.9606 23.8174C40.173 26.8411 34.0739 32.6653 30.722 40.1996C29.9911 41.8354 28.0757 42.5789 26.4123 41.8602C24.7489 41.1414 23.9929 39.2579 24.7237 37.6221C28.7562 28.5016 36.1406 21.4629 45.5664 17.8197C54.967 14.1517 65.2749 14.3252 74.5243 18.2906C93.6532 26.4693 102.474 48.4279 94.1824 67.2638C88.033 81.2915 74.0455 89.6933 59.4027 89.6933Z" fill="white"/>
</svg>
