<svg width="40" height="38" viewBox="0 0 40 38" fill="none" xmlns="http://www.w3.org/2000/svg">
<path d="M20.583 34.708C20.5128 34.708 20.4427 34.708 20.3813 34.708C17.8479 34.6735 15.3145 34.0687 13.0528 32.9454C12.5093 32.6776 12.2989 32.0295 12.5707 31.4938C12.8424 30.9582 13.4999 30.7508 14.0434 31.0186C16.007 31.995 18.2161 32.5307 20.4076 32.5566C22.7044 32.5825 24.931 32.0814 27.0085 31.0618C34.153 27.5625 37.0809 18.9827 33.5306 11.9409C29.9803 4.89903 21.2755 2.01317 14.1311 5.51249C6.98663 9.01181 4.05874 17.583 7.60903 24.6335C7.88078 25.1692 7.66163 25.8172 7.11813 26.085C6.57462 26.3529 5.91716 26.1282 5.64541 25.6012C3.66426 21.6698 3.35744 17.2201 4.77756 13.0641C6.19768 8.90813 9.16941 5.52977 13.158 3.57707C21.3894 -0.449309 31.4092 2.86856 35.4942 10.9818C37.4753 14.9131 37.7822 19.3629 36.362 23.5189C34.9419 27.6748 31.9702 31.0446 27.9816 32.9973C25.6498 34.1291 23.1602 34.708 20.583 34.708Z" fill="white"/>
<path d="M20.5478 27.8131C18.6368 27.8131 16.7696 27.2515 15.1479 26.1714C13.0089 24.7458 11.5625 22.5857 11.0716 20.0887C10.7823 18.5939 11.0278 17.1769 11.2382 16.2351C11.3697 15.6562 11.957 15.2847 12.5443 15.4143C13.1317 15.5439 13.5086 16.1228 13.3771 16.7017C13.1054 17.9113 13.0615 18.8272 13.2281 19.6739C13.605 21.6094 14.7271 23.277 16.3752 24.3829C18.0232 25.4889 20.0219 25.8863 21.9767 25.5148C23.9404 25.1433 25.6322 24.0373 26.7543 22.4043C27.8764 20.7713 28.2796 18.8099 27.9027 16.8831C27.5257 14.9477 26.4036 13.2801 24.7468 12.1742C23.09 11.0682 21.1001 10.6708 19.1453 11.0423C18.3826 11.1892 17.6375 11.5002 16.7258 12.0446C16.2086 12.3556 15.5336 12.1915 15.218 11.6817C14.9024 11.1719 15.069 10.5066 15.5862 10.1955C16.2963 9.77217 17.4008 9.17599 18.7333 8.91678C21.2667 8.43293 23.8439 8.95135 25.9829 10.377C28.1218 11.8026 29.5682 13.9627 30.0591 16.4598C30.55 18.9568 30.0241 21.4971 28.5689 23.6053C27.1137 25.7135 24.9309 27.1392 22.3975 27.623C21.7839 27.7613 21.1615 27.8131 20.5478 27.8131Z" fill="white"/>
<path d="M20.5654 23.4066C23.4364 23.4066 25.7637 21.1126 25.7637 18.2829C25.7637 15.4531 23.4364 13.1592 20.5654 13.1592C17.6944 13.1592 15.3671 15.4531 15.3671 18.2829C15.3671 21.1126 17.6944 23.4066 20.5654 23.4066Z" fill="#E3BA6B"/>
<path d="M20.6619 31.2692C18.9174 31.2692 17.1466 30.9236 15.446 30.1978C13.2808 29.2733 11.3697 27.7094 9.75675 25.5407C9.14312 24.7199 8.65222 23.8472 8.28404 22.94C8.04735 22.3611 8.33664 21.7131 8.9152 21.4798C9.50254 21.2465 10.16 21.5316 10.3967 22.1019C10.6947 22.8277 11.098 23.5362 11.5889 24.2015C12.9827 26.0764 14.5343 27.3552 16.3489 28.1328C21.8541 30.483 28.2797 27.9773 30.6728 22.5598C33.0572 17.1337 30.515 10.8004 25.0099 8.44158C22.345 7.30106 19.382 7.24922 16.682 8.30334C13.9733 9.35745 11.8519 11.3879 10.686 14.0146C10.4317 14.5848 9.76552 14.844 9.18695 14.5935C8.60839 14.3429 8.3454 13.6862 8.59962 13.116C10.0022 9.93635 12.5707 7.48251 15.8492 6.21239C19.119 4.93362 22.7044 4.99411 25.9216 6.37655C32.5751 9.22785 35.6432 16.8831 32.7592 23.4498C30.6202 28.3402 25.755 31.2692 20.6619 31.2692Z" fill="white"/>
</svg>
